<svg id="visual" viewBox="0 0 1980 1080" width="1980" height="1080" xmlns="http://www.w3.org/2000/svg" xmlns:xlink="http://www.w3.org/1999/xlink" version="1.1"><rect x="0" y="0" width="1980" height="1080" fill="#001220"></rect><defs><linearGradient id="grad1_0" x1="45.5%" y1="100%" x2="100%" y2="0%"><stop offset="13.333333333333334%" stop-color="#4ed3cb" stop-opacity="1"></stop><stop offset="86.66666666666667%" stop-color="#4ed3cb" stop-opacity="1"></stop></linearGradient></defs><defs><linearGradient id="grad1_1" x1="45.5%" y1="100%" x2="100%" y2="0%"><stop offset="13.333333333333334%" stop-color="#4ed3cb" stop-opacity="1"></stop><stop offset="86.66666666666667%" stop-color="#1c8c9b" stop-opacity="1"></stop></linearGradient></defs><defs><linearGradient id="grad1_2" x1="45.5%" y1="100%" x2="100%" y2="0%"><stop offset="13.333333333333334%" stop-color="#0d4a5f" stop-opacity="1"></stop><stop offset="86.66666666666667%" stop-color="#1c8c9b" stop-opacity="1"></stop></linearGradient></defs><defs><linearGradient id="grad1_3" x1="45.5%" y1="100%" x2="100%" y2="0%"><stop offset="13.333333333333334%" stop-color="#0d4a5f" stop-opacity="1"></stop><stop offset="86.66666666666667%" stop-color="#001220" stop-opacity="1"></stop></linearGradient></defs><defs><linearGradient id="grad2_0" x1="0%" y1="100%" x2="54.5%" y2="0%"><stop offset="13.333333333333334%" stop-color="#4ed3cb" stop-opacity="1"></stop><stop offset="86.66666666666667%" stop-color="#4ed3cb" stop-opacity="1"></stop></linearGradient></defs><defs><linearGradient id="grad2_1" x1="0%" y1="100%" x2="54.5%" y2="0%"><stop offset="13.333333333333334%" stop-color="#1c8c9b" stop-opacity="1"></stop><stop offset="86.66666666666667%" stop-color="#4ed3cb" stop-opacity="1"></stop></linearGradient></defs><defs><linearGradient id="grad2_2" x1="0%" y1="100%" x2="54.5%" y2="0%"><stop offset="13.333333333333334%" stop-color="#1c8c9b" stop-opacity="1"></stop><stop offset="86.66666666666667%" stop-color="#0d4a5f" stop-opacity="1"></stop></linearGradient></defs><defs><linearGradient id="grad2_3" x1="0%" y1="100%" x2="54.5%" y2="0%"><stop offset="13.333333333333334%" stop-color="#001220" stop-opacity="1"></stop><stop offset="86.66666666666667%" stop-color="#0d4a5f" stop-opacity="1"></stop></linearGradient></defs><g transform="translate(1980, 1080)"><path d="M-648 0C-639.2 -84.9 -630.4 -169.9 -598.7 -248C-566.9 -326.1 -512.2 -397.3 -446.9 -446.9C-381.6 -496.5 -305.8 -524.4 -229.6 -554.3C-153.4 -584.2 -76.7 -616.1 0 -648L0 0Z" fill="#092d3f"></path><path d="M-486 0C-479.4 -63.7 -472.8 -127.4 -449 -186C-425.2 -244.6 -384.1 -298 -335.2 -335.2C-286.2 -372.4 -229.4 -393.3 -172.2 -415.7C-115 -438.2 -57.5 -462.1 0 -486L0 0Z" fill="#116a7e"></path><path d="M-324 0C-319.6 -42.5 -315.2 -84.9 -299.3 -124C-283.5 -163 -256.1 -198.7 -223.4 -223.4C-190.8 -248.2 -152.9 -262.2 -114.8 -277.2C-76.7 -292.1 -38.3 -308.1 0 -324L0 0Z" fill="#30afb5"></path><path d="M-162 0C-159.8 -21.2 -157.6 -42.5 -149.7 -62C-141.7 -81.5 -128 -99.3 -111.7 -111.7C-95.4 -124.1 -76.5 -131.1 -57.4 -138.6C-38.3 -146.1 -19.2 -154 0 -162L0 0Z" fill="#4ed3cb"></path></g><g transform="translate(0, 0)"><path d="M648 0C641.5 87.1 635 174.3 598.7 248C562.4 321.7 496.3 382 430.6 430.6C365 479.3 299.8 516.3 228.1 550.6C156.4 584.9 78.2 616.5 0 648L0 0Z" fill="#092d3f"></path><path d="M486 0C481.1 65.4 476.2 130.7 449 186C421.8 241.3 372.2 286.5 323 323C273.7 359.5 224.8 387.3 171.1 413C117.3 438.7 58.6 462.3 0 486L0 0Z" fill="#116a7e"></path><path d="M324 0C320.7 43.6 317.5 87.1 299.3 124C281.2 160.8 248.1 191 215.3 215.3C182.5 239.6 149.9 258.2 114 275.3C78.2 292.5 39.1 308.2 0 324L0 0Z" fill="#30afb5"></path><path d="M162 0C160.4 21.8 158.7 43.6 149.7 62C140.6 80.4 124.1 95.5 107.7 107.7C91.2 119.8 74.9 129.1 57 137.7C39.1 146.2 19.5 154.1 0 162L0 0Z" fill="#4ed3cb"></path></g></svg>