<svg id="visual" viewBox="0 0 1985 1080" width="1985" height="1080" xmlns="http://www.w3.org/2000/svg" xmlns:xlink="http://www.w3.org/1999/xlink" version="1.1"><g stroke-width="1" stroke-linejoin="bevel"><path d="M1100.8 445L1118.8 616L1296.3 453Z" fill="#1d4e6b" stroke="#1d4e6b"></path><path d="M1118.8 616L1292.3 677L1296.3 453Z" fill="#00101c" stroke="#00101c"></path><path d="M1132.8 204L899.2 413L1100.8 445Z" fill="#246688" stroke="#246688"></path><path d="M1100.8 445L899.2 413L1118.8 616Z" fill="#277297" stroke="#277297"></path><path d="M1292.3 677L1503.9 610L1296.3 453Z" fill="#277297" stroke="#277297"></path><path d="M1313.3 177L1132.8 204L1296.3 453Z" fill="#277297" stroke="#277297"></path><path d="M1296.3 453L1132.8 204L1100.8 445Z" fill="#246688" stroke="#246688"></path><path d="M1524.9 224L1313.3 177L1296.3 453Z" fill="#15384f" stroke="#15384f"></path><path d="M1503.9 610L1557.9 464L1296.3 453Z" fill="#297ea6" stroke="#297ea6"></path><path d="M899.2 413L850.2 653L1118.8 616Z" fill="#081a28" stroke="#081a28"></path><path d="M1118.8 616L1093.8 891L1292.3 677Z" fill="#246688" stroke="#246688"></path><path d="M921.2 900L1093.8 891L1118.8 616Z" fill="#112e42" stroke="#112e42"></path><path d="M1292.3 677L1533.9 838L1503.9 610Z" fill="#15384f" stroke="#15384f"></path><path d="M1093.8 891L1329.3 890L1292.3 677Z" fill="#0c2435" stroke="#0c2435"></path><path d="M1557.9 464L1524.9 224L1296.3 453Z" fill="#297ea6" stroke="#297ea6"></path><path d="M1128.8 0L896.2 185L1132.8 204Z" fill="#15384f" stroke="#15384f"></path><path d="M1132.8 204L896.2 185L899.2 413Z" fill="#297ea6" stroke="#297ea6"></path><path d="M899.2 413L651.7 400L850.2 653Z" fill="#205a7a" stroke="#205a7a"></path><path d="M1329.3 890L1533.9 838L1292.3 677Z" fill="#0c2435" stroke="#0c2435"></path><path d="M1791.4 612L1745.4 466L1557.9 464Z" fill="#297ea6" stroke="#297ea6"></path><path d="M850.2 653L921.2 900L1118.8 616Z" fill="#297ea6" stroke="#297ea6"></path><path d="M1093.8 891L1139.8 1080L1329.3 890Z" fill="#1d4e6b" stroke="#1d4e6b"></path><path d="M1313.3 177L1128.8 0L1132.8 204Z" fill="#15384f" stroke="#15384f"></path><path d="M1318.3 0L1128.8 0L1313.3 177Z" fill="#297ea6" stroke="#297ea6"></path><path d="M1524.9 224L1318.3 0L1313.3 177Z" fill="#112e42" stroke="#112e42"></path><path d="M1557.9 464L1782.4 253L1524.9 224Z" fill="#081a28" stroke="#081a28"></path><path d="M1791.4 612L1557.9 464L1503.9 610Z" fill="#277297" stroke="#277297"></path><path d="M670.7 255L651.7 400L899.2 413Z" fill="#277297" stroke="#277297"></path><path d="M850.2 653L700.7 868L921.2 900Z" fill="#297ea6" stroke="#297ea6"></path><path d="M921.2 900L1139.8 1080L1093.8 891Z" fill="#081a28" stroke="#081a28"></path><path d="M1329.3 890L1528.9 1080L1533.9 838Z" fill="#297ea6" stroke="#297ea6"></path><path d="M651.7 400L637.7 614L850.2 653Z" fill="#205a7a" stroke="#205a7a"></path><path d="M1139.8 1080L1322.3 1080L1329.3 890Z" fill="#277297" stroke="#277297"></path><path d="M896.2 185L670.7 255L899.2 413Z" fill="#205a7a" stroke="#205a7a"></path><path d="M660.7 0L670.7 255L896.2 185Z" fill="#081a28" stroke="#081a28"></path><path d="M1743.4 883L1791.4 612L1533.9 838Z" fill="#081a28" stroke="#081a28"></path><path d="M1533.9 838L1791.4 612L1503.9 610Z" fill="#112e42" stroke="#112e42"></path><path d="M637.7 614L700.7 868L850.2 653Z" fill="#277297" stroke="#277297"></path><path d="M921.2 900L853.2 1080L1139.8 1080Z" fill="#246688" stroke="#246688"></path><path d="M1128.8 0L857.2 0L896.2 185Z" fill="#297ea6" stroke="#297ea6"></path><path d="M1985 429L1782.4 253L1745.4 466Z" fill="#205a7a" stroke="#205a7a"></path><path d="M1745.4 466L1782.4 253L1557.9 464Z" fill="#1d4e6b" stroke="#1d4e6b"></path><path d="M1524.9 224L1580.9 0L1318.3 0Z" fill="#081a28" stroke="#081a28"></path><path d="M1731.4 0L1580.9 0L1524.9 224Z" fill="#1d4e6b" stroke="#1d4e6b"></path><path d="M1322.3 1080L1528.9 1080L1329.3 890Z" fill="#15384f" stroke="#15384f"></path><path d="M700.7 868L853.2 1080L921.2 900Z" fill="#297ea6" stroke="#297ea6"></path><path d="M1528.9 1080L1743.4 883L1533.9 838Z" fill="#112e42" stroke="#112e42"></path><path d="M426.1 203L479.1 430L670.7 255Z" fill="#277297" stroke="#277297"></path><path d="M670.7 255L479.1 430L651.7 400Z" fill="#277297" stroke="#277297"></path><path d="M651.7 400L479.1 430L637.7 614Z" fill="#00101c" stroke="#00101c"></path><path d="M637.7 614L456.1 893L700.7 868Z" fill="#0c2435" stroke="#0c2435"></path><path d="M857.2 0L660.7 0L896.2 185Z" fill="#246688" stroke="#246688"></path><path d="M1782.4 253L1731.4 0L1524.9 224Z" fill="#19435d" stroke="#19435d"></path><path d="M479.1 430L437.1 656L637.7 614Z" fill="#0c2435" stroke="#0c2435"></path><path d="M700.7 868L649.7 1080L853.2 1080Z" fill="#297ea6" stroke="#297ea6"></path><path d="M456.1 893L649.7 1080L700.7 868Z" fill="#112e42" stroke="#112e42"></path><path d="M1791.4 612L1985 429L1745.4 466Z" fill="#246688" stroke="#246688"></path><path d="M1782.4 253L1985 0L1731.4 0Z" fill="#112e42" stroke="#112e42"></path><path d="M1985 623L1985 429L1791.4 612Z" fill="#277297" stroke="#277297"></path><path d="M1985 882L1985 623L1791.4 612Z" fill="#081a28" stroke="#081a28"></path><path d="M1528.9 1080L1787.4 1080L1743.4 883Z" fill="#081a28" stroke="#081a28"></path><path d="M1743.4 883L1985 882L1791.4 612Z" fill="#205a7a" stroke="#205a7a"></path><path d="M437.1 656L456.1 893L637.7 614Z" fill="#00101c" stroke="#00101c"></path><path d="M660.7 0L426.1 203L670.7 255Z" fill="#19435d" stroke="#19435d"></path><path d="M191.6 413L232.6 665L437.1 656Z" fill="#00101c" stroke="#00101c"></path><path d="M1985 429L1985 232L1782.4 253Z" fill="#112e42" stroke="#112e42"></path><path d="M1787.4 1080L1985 882L1743.4 883Z" fill="#081a28" stroke="#081a28"></path><path d="M660.7 0L446.1 0L426.1 203Z" fill="#081a28" stroke="#081a28"></path><path d="M232.6 665L456.1 893L437.1 656Z" fill="#246688" stroke="#246688"></path><path d="M250.6 1080L444.1 1080L456.1 893Z" fill="#246688" stroke="#246688"></path><path d="M456.1 893L444.1 1080L649.7 1080Z" fill="#081a28" stroke="#081a28"></path><path d="M1985 232L1985 0L1782.4 253Z" fill="#00101c" stroke="#00101c"></path><path d="M1787.4 1080L1985 1080L1985 882Z" fill="#277297" stroke="#277297"></path><path d="M191.6 413L437.1 656L479.1 430Z" fill="#0c2435" stroke="#0c2435"></path><path d="M191.6 413L479.1 430L426.1 203Z" fill="#19435d" stroke="#19435d"></path><path d="M184.6 229L191.6 413L426.1 203Z" fill="#277297" stroke="#277297"></path><path d="M223.6 0L184.6 229L426.1 203Z" fill="#205a7a" stroke="#205a7a"></path><path d="M0 667L182.6 849L232.6 665Z" fill="#205a7a" stroke="#205a7a"></path><path d="M232.6 665L182.6 849L456.1 893Z" fill="#19435d" stroke="#19435d"></path><path d="M0 667L232.6 665L191.6 413Z" fill="#112e42" stroke="#112e42"></path><path d="M182.6 849L250.6 1080L456.1 893Z" fill="#081a28" stroke="#081a28"></path><path d="M446.1 0L223.6 0L426.1 203Z" fill="#081a28" stroke="#081a28"></path><path d="M0 222L0 399L184.6 229Z" fill="#15384f" stroke="#15384f"></path><path d="M184.6 229L0 399L191.6 413Z" fill="#15384f" stroke="#15384f"></path><path d="M182.6 849L0 1080L250.6 1080Z" fill="#081a28" stroke="#081a28"></path><path d="M0 399L0 667L191.6 413Z" fill="#297ea6" stroke="#297ea6"></path><path d="M0 0L0 222L184.6 229Z" fill="#112e42" stroke="#112e42"></path><path d="M0 667L0 876L182.6 849Z" fill="#081a28" stroke="#081a28"></path><path d="M223.6 0L0 0L184.6 229Z" fill="#081a28" stroke="#081a28"></path><path d="M0 876L0 1080L182.6 849Z" fill="#15384f" stroke="#15384f"></path></g></svg>